<svg width="17" height="19" viewBox="0 0 17 19" fill="none" xmlns="http://www.w3.org/2000/svg">
<path d="M5.65833 10.7835L11.35 14.1665M11.3417 4.8335L5.65833 8.2165M16 3.55C16 4.95833 14.8807 6.1 13.5 6.1C12.1193 6.1 11 4.95833 11 3.55C11 2.14167 12.1193 1 13.5 1C14.8807 1 16 2.14167 16 3.55ZM6 9.5C6 10.9083 4.88071 12.05 3.5 12.05C2.11929 12.05 1 10.9083 1 9.5C1 8.09167 2.11929 6.95 3.5 6.95C4.88071 6.95 6 8.09167 6 9.5ZM16 15.45C16 16.8583 14.8807 18 13.5 18C12.1193 18 11 16.8583 11 15.45C11 14.0417 12.1193 12.9 13.5 12.9C14.8807 12.9 16 14.0417 16 15.45Z" stroke="#1E1E1E" stroke-width="2" stroke-linecap="round" stroke-linejoin="round"/>
</svg>
